<svg xmlns="http://www.w3.org/2000/svg" viewBox="269.269 270.965 26.68 13.97">
  <path
    d="M287.029 270.975h1.9l-4.56 13.96h-1.82l-3.4-10.84h-.1l-3.4 10.84h-1.82l-4.56-13.96h1.9l3.52 11.52h.06l3.56-11.52h1.58l3.56 11.52h.06l3.52-11.52Z"
    fill="#6DD2DA" />
  <path d="M271.029 270.965h16l-3.5 12-4.5-9.5-4.5 9.5-3.5-12Z" fill="#6DD2DA" />
  <path
    d="M288.889 270.975c1.146 0 2.18.207 3.1.62.933.4 1.68.94 2.24 1.62 1.146 1.374 1.72 2.954 1.72 4.74 0 1.427-.374 2.727-1.12 3.9a6.294 6.294 0 0 1-3.38 2.68c-.787.267-1.64.4-2.56.4h-4.92v-13.96h4.92Zm-.22 12.26c1.653 0 2.98-.486 3.98-1.46 1-.973 1.5-2.246 1.5-3.82 0-1.573-.5-2.846-1.5-3.82-1-.973-2.327-1.46-3.98-1.46h-2.88v10.56h2.88Z"
    fill="#FF6C5A" />
</svg>